<?xml version="1.0" encoding="UTF-8"?><svg xmlns="http://www.w3.org/2000/svg" viewBox="0 0 1070.39 225.03"><defs><style>.f{fill:#fd4407;}.g{fill:#ff7fdf;}.h{fill:#1d5afc;}.i{fill:#232221;}</style></defs><g id="a"/><g id="b"><g id="c"><g id="d"><g id="e"><g><g><path class="i" d="M129.02,87.24c-3.23-4.81-7.17-9.11-11.81-12.87-5.18-4.2-11.3-7.5-18.34-9.9-7.05-2.4-14.72-3.6-23.01-3.6-14.3,0-27.15,3.5-38.55,10.49-11.4,7-20.47,16.64-27.2,28.94C3.37,112.6,0,126.75,0,142.74s3.31,29.59,9.95,41.98c6.63,12.4,15.44,22.19,26.43,29.39,10.98,7.2,23.32,10.8,37,10.8,7.67,0,15.08-1.2,22.23-3.6,7.15-2.4,13.63-5.55,19.43-9.45,5.64-3.79,10.31-8.16,13.99-13.09v23.14h35.44V64.17h-35.44v23.07h0Zm-4.82,82.19c-4.04,7.8-9.64,13.9-16.79,18.29-7.15,4.4-15.39,6.6-24.72,6.6s-17.21-2.2-24.25-6.6c-7.05-4.4-12.59-10.5-16.63-18.29-4.04-7.8-6.06-16.69-6.06-26.69s2.02-18.84,6.06-26.54c4.04-7.69,9.58-13.74,16.63-18.14,7.04-4.4,15.13-6.6,24.25-6.6s17.57,2.2,24.72,6.6,12.75,10.45,16.79,18.14c4.04,7.7,6.06,16.54,6.06,26.54s-2.02,18.89-6.06,26.69Z"/><path class="i" d="M374.34,71.37c-11.3-7-24.3-10.49-39.02-10.49-6.64,0-13.16,1.05-19.59,3.15-6.43,2.1-12.39,4.9-17.88,8.4s-10,7.4-13.52,11.69c-.33,.4-.63,.8-.93,1.2V0h-35.13V221.01h34.51l.32-19.36c3.69,4.15,8.14,7.96,13.36,11.41,5.6,3.7,11.86,6.6,18.81,8.7,6.94,2.1,13.94,3.15,20.99,3.15,14.3,0,27.1-3.55,38.4-10.65,11.29-7.09,20.21-16.84,26.74-29.24,6.53-12.39,9.79-26.49,9.79-42.28s-3.32-30.14-9.95-42.43c-6.64-12.29-15.6-21.94-26.89-28.94h0Zm-3.26,98.06c-4.15,7.8-9.79,13.94-16.94,18.44s-15.29,6.75-24.41,6.75-17.57-2.25-24.72-6.75-12.8-10.65-16.94-18.44c-4.15-7.8-6.22-16.69-6.22-26.69s2.07-18.89,6.22-26.69c4.14-7.8,9.79-13.89,16.94-18.29s15.39-6.6,24.72-6.6,17.57,2.2,24.72,6.6,12.75,10.5,16.79,18.29c4.04,7.8,6.06,16.69,6.06,26.69s-2.07,18.89-6.22,26.69Z"/><path class="i" d="M603.54,147.82c-3.94-4.2-9.33-7.84-16.17-10.95-6.84-3.1-15.34-5.94-25.49-8.55-7.26-1.6-13.16-3.3-17.72-5.1-4.56-1.8-7.98-3.4-10.26-4.8-2.07-1.6-3.68-3.49-4.82-5.7-1.14-2.2-1.82-4.6-2.02-7.2,0-2.8,.57-5.29,1.71-7.5,1.14-2.2,2.85-4.05,5.13-5.55s5.08-2.65,8.39-3.45c3.31-.8,7.04-1.2,11.19-1.2,3.93,0,8.34,.8,13.21,2.4s9.64,3.85,14.3,6.75,8.96,6.15,12.9,9.75l19.59-20.99c-4.56-5-10.1-9.39-16.63-13.2-6.53-3.79-13.68-6.7-21.45-8.7-7.77-1.99-15.6-3-23.47-3s-15.81,1.1-23.16,3.3c-7.36,2.2-13.73,5.4-19.12,9.6s-9.64,9.1-12.75,14.7-4.66,11.69-4.66,18.29c0,5.6,.78,10.7,2.33,15.29,1.55,4.6,3.99,8.9,7.31,12.9,4.35,4.6,10.31,8.75,17.88,12.44,7.56,3.7,17.15,7.05,28.76,10.05,7.04,1.8,12.75,3.5,17.1,5.1s7.56,3.1,9.64,4.5c3.93,3,5.91,7,5.91,11.99,0,2.8-.57,5.35-1.71,7.65-1.14,2.3-2.85,4.3-5.13,6s-4.93,3-7.93,3.9c-3.01,.9-6.27,1.35-9.79,1.35-9.12,0-17.41-1.55-24.87-4.65-7.46-3.1-14.3-8.04-20.52-14.84l-23.32,19.19c7.25,8.8,16.48,15.55,27.67,20.24,11.19,4.7,23.94,7.05,38.24,7.05,11.19,0,21.4-2.05,30.62-6.15,9.22-4.09,16.53-9.75,21.92-16.94,5.39-7.2,8.08-15.39,8.08-24.59,0-6.2-.83-11.74-2.49-16.64s-4.46-9.15-8.39-12.74h-.01Z"/><path class="i" d="M951.6,137.77c.2-10.99-1.47-21.19-5-30.59-3.54-9.4-8.64-17.54-15.32-24.44-6.67-6.9-14.51-12.29-23.51-16.19s-18.76-5.85-29.27-5.85c-11.73,0-22.6,2.05-32.6,6.15-10.01,4.1-18.6,9.9-25.78,17.39-7.18,7.5-12.79,16.34-16.83,26.54-4.05,10.19-6.07,21.49-6.07,33.89,0,15.59,3.59,29.44,10.77,41.53,7.18,12.1,17.14,21.59,29.87,28.49,12.74,6.9,27.4,10.34,43.98,10.34,7.48,0,15.06-1,22.75-3,7.68-2,15.06-4.8,22.14-8.4,5.94-3.02,11.17-6.46,15.68-10.33l-18.86-22.46c-6.01,4.55-11.62,7.83-16.84,9.85-6.47,2.5-13.55,3.75-21.23,3.75-10.92,0-20.52-2.15-28.81-6.45s-14.71-10.34-19.26-18.14c-3.25-5.58-5.32-11.88-6.25-18.89h120.14l.3-13.19h0Zm-99.18-40.63c7.08-3.9,15.87-5.85,26.39-5.85,6.67,0,12.79,1.45,18.35,4.35s10.16,6.8,13.8,11.69c3.64,4.9,5.76,10.55,6.37,16.94v1.8h-85.11c.93-4.26,2.25-8.17,3.98-11.69,3.74-7.6,9.15-13.34,16.23-17.24h0Z"/><path class="i" d="M761.67,82.65c-6.67-6.9-14.51-12.29-23.51-16.19s-18.76-5.85-29.27-5.85c-11.73,0-22.6,2.05-32.6,6.15-10.01,4.1-18.6,9.9-25.78,17.39-7.18,7.5-12.79,16.34-16.83,26.54-4.05,10.19-6.07,21.49-6.07,33.89,0,15.59,3.59,29.44,10.77,41.53,7.18,12.1,17.14,21.59,29.87,28.49,12.74,6.9,27.4,10.34,43.98,10.34,7.48,0,15.06-1,22.75-3,7.68-2,15.06-4.8,22.14-8.4,5.94-3.02,11.17-6.46,15.68-10.33l-18.86-22.46c-6.01,4.55-11.62,7.83-16.84,9.85-6.47,2.5-13.55,3.75-21.23,3.75-10.92,0-20.52-2.15-28.81-6.45s-14.71-10.34-19.26-18.14c-3.25-5.58-5.32-11.88-6.25-18.89h120.14l.3-13.19c.2-10.99-1.47-21.19-5-30.59-3.54-9.4-8.64-17.54-15.32-24.44h0Zm-78.86,14.39c7.08-3.9,15.87-5.85,26.39-5.85,6.67,0,12.79,1.45,18.35,4.35s10.16,6.8,13.8,11.69c3.64,4.9,5.76,10.55,6.37,16.94v1.8h-85.11c.93-4.26,2.25-8.17,3.98-11.69,3.74-7.6,9.15-13.34,16.23-17.24h0Z"/></g><circle class="g" cx="204.86" cy="90.39" r="18.1"/><path class="h" d="M449.92,179.29c-10,0-18.1-8.11-18.1-18.1s8.11-18.1,18.1-18.1,18.1,8.11,18.1,18.1-8.11,18.1-18.1,18.1"/><circle class="h" cx="449.7" cy="90.39" r="18.1"/><circle class="f" cx="980.91" cy="90.39" r="18.1"/><circle class="f" cx="1052.29" cy="90.39" r="18.1"/></g></g></g></g></g></svg>