<?xml version="1.0" encoding="utf-8"?>
<!-- Generator: Adobe Illustrator 26.2.0, SVG Export Plug-In . SVG Version: 6.00 Build 0)  -->
<svg version="1.1" id="Calque_1" xmlns="http://www.w3.org/2000/svg" xmlns:xlink="http://www.w3.org/1999/xlink" x="0px" y="0px"
	 viewBox="0 0 700 700" style="enable-background:new 0 0 700 700;" xml:space="preserve">
<style type="text/css">
	.st0{fill:#1D5AFC;}
</style>
<path class="st0" d="M541.2,489.2L437.6,385.5c43-55.5,43-133-0.1-188.5C385.5,130,288.9,118,222,170c-67,52-79.1,148.6-27.1,215.6
	c52.1,67,148.7,79.1,215.6,27.1L514,516.2c7.2,6.1,17.8,6.2,25,0.1C546.9,509.4,547.9,497.2,541.2,489.2L541.2,489.2z M316.1,406.6
	c-63.7,0-115.3-51.6-115.3-115.3c0-63.6,51.6-115.3,115.3-115.3s115.3,51.6,115.3,115.3S379.8,406.6,316.1,406.6z"/>
</svg>
