<?xml version="1.0" encoding="utf-8"?>
<!-- Generator: Adobe Illustrator 26.2.0, SVG Export Plug-In . SVG Version: 6.00 Build 0)  -->
<svg version="1.1" id="Calque_1" xmlns="http://www.w3.org/2000/svg" xmlns:xlink="http://www.w3.org/1999/xlink" x="0px" y="0px"
	 viewBox="0 0 700 700" style="enable-background:new 0 0 700 700;" xml:space="preserve">
<style type="text/css">
	.st0{fill:#1D5AFC;}
</style>
<g>
	<path class="st0" d="M350.5,595.5c-9.7,0-17.5-7.8-17.5-17.5V123c0-9.7,7.8-17.5,17.5-17.5S368,113.3,368,123v455
		C368,587.7,360.2,595.5,350.5,595.5z"/>
	<path class="st0" d="M455.5,490.5c-9.7,0-17.5-7.8-17.5-17.5V228c0-9.7,7.8-17.5,17.5-17.5S473,218.3,473,228v245
		C473,482.7,465.2,490.5,455.5,490.5z"/>
	<path class="st0" d="M560.5,420.5c-9.7,0-17.5-7.8-17.5-17.5V298c0-9.7,7.8-17.5,17.5-17.5S578,288.3,578,298v105
		C578,412.7,570.2,420.5,560.5,420.5z"/>
	<path class="st0" d="M245.5,490.5c-9.7,0-17.5-7.8-17.5-17.5V228c0-9.7,7.8-17.5,17.5-17.5c9.7,0,17.5,7.8,17.5,17.5v245
		C263,482.7,255.2,490.5,245.5,490.5z"/>
	<path class="st0" d="M140.5,420.5c-9.7,0-17.5-7.8-17.5-17.5V298c0-9.7,7.8-17.5,17.5-17.5S158,288.3,158,298v105
		C158,412.7,150.2,420.5,140.5,420.5z"/>
</g>
</svg>
