<?xml version="1.0" encoding="utf-8"?>
<!-- Generator: Adobe Illustrator 26.2.0, SVG Export Plug-In . SVG Version: 6.00 Build 0)  -->
<svg version="1.1" id="Calque_1" xmlns="http://www.w3.org/2000/svg" xmlns:xlink="http://www.w3.org/1999/xlink" x="0px" y="0px"
	 viewBox="0 0 700 700" style="enable-background:new 0 0 700 700;" xml:space="preserve">
<style type="text/css">
	.st0{fill:#1D5AFC;}
</style>
<g>
	<path class="st0" d="M350.4,265.8c-22.4,0-44,8.9-59.8,24.7s-24.9,37.4-24.9,59.8s8.9,44,24.7,59.8c15.8,15.8,37.4,24.9,59.8,24.9
		s44-8.9,59.8-24.7c15.8-15.8,24.9-37.4,24.9-59.8s-8.9-44-24.7-59.8C394.4,274.8,372.8,266,350.4,265.8L350.4,265.8z M350.4,399.4
		c-13.1,0-25.4-5.2-34.7-14.3c-9.3-9.3-14.5-21.6-14.5-34.7c0-12.9,5.2-25.4,14.3-34.7c9.3-9.3,21.6-14.3,34.7-14.3
		s25.4,5.2,34.7,14.5s14.3,21.8,14.3,34.7c0,12.9-5.2,25.4-14.5,34.5C375.9,394.2,363.3,399.2,350.4,399.4L350.4,399.4z"/>
	<path class="st0" d="M350.4,463.2c-4.6,0-9.3,1.7-12.5,5.2c-3.3,3.3-5.2,7.9-5.2,12.5v94.7c0,9.8,7.9,17.7,17.7,17.7
		c9.8,0,17.7-7.9,17.7-17.7v-94.7c0-4.6-1.9-9.3-5.2-12.5C359.7,465.1,355,463.2,350.4,463.2L350.4,463.2z"/>
	<path class="st0" d="M350.4,237.4c9.8,0,17.7-7.9,17.7-17.7v-94.3c0-9.8-7.9-17.7-17.7-17.7c-9.8,0-17.7,7.9-17.7,17.7v94.3
		C332.7,229.5,340.6,237.4,350.4,237.4L350.4,237.4z"/>
	<path class="st0" d="M245.3,430.2l-66.9,66.7c-5,5-6.6,12.7-3.9,19.5c2.7,6.6,9.3,11,16.4,11c4.6,0,9.3-1.9,12.5-5.2l66.9-66.9l0,0
		c6.9-6.9,6.9-18.1,0-25.1S252.3,423.3,245.3,430.2L245.3,430.2z"/>
	<path class="st0" d="M442.7,275.6c4.6,0,9.3-1.9,12.5-5.2l66.9-66.9l0,0c3.7-3.3,5.8-7.9,6-12.7s-1.7-9.6-5.2-13.1
		s-8.1-5.4-13.1-5.2c-4.8,0.2-9.4,2.3-12.7,6l-66.9,66.9c-6.9,6.9-6.9,18.1,0,25.1C433.5,273.9,437.9,275.6,442.7,275.6L442.7,275.6
		z"/>
	<path class="st0" d="M237.4,350.4c0-9.8-7.9-17.7-17.7-17.7h-94.3c-9.8,0-17.7,7.9-17.7,17.7c0,9.8,7.9,17.7,17.7,17.7h94.3
		C229.5,368.1,237.4,360.2,237.4,350.4z"/>
	<path class="st0" d="M575.6,332.7h-94.7c-9.8,0-17.7,7.9-17.7,17.7c0,9.8,7.9,17.7,17.7,17.7h94.7c9.8,0,17.7-7.9,17.7-17.7
		C593.3,340.6,585.4,332.7,575.6,332.7z"/>
	<path class="st0" d="M245.3,270.6c3.3,3.3,7.9,5.2,12.7,5.2c4.6,0,9.3-1.9,12.5-5.2c6.9-6.9,6.9-18.1,0-25.1l-66.9-66.9
		c-7.1-6.4-17.7-6-24.5,0.6c-6.7,6.7-6.9,17.4-0.6,24.5L245.3,270.6z"/>
	<path class="st0" d="M455.3,430.2c-6.9-6.9-18.1-6.9-25.1,0s-6.9,18.1,0,25.1l66.9,66.9l0,0c3.3,3.3,7.9,5.2,12.5,5.2
		c4.8,0,9.3-1.9,12.7-5.2c6.9-6.9,6.9-18.1,0-25.3L455.3,430.2z"/>
</g>
</svg>
